<?xml version="1.0" encoding="UTF-8"?>
<!DOCTYPE svg PUBLIC "-//W3C//DTD SVG 1.1//EN" "http://www.w3.org/Graphics/SVG/1.1/DTD/svg11.dtd">
<!-- Creator: CorelDRAW -->
<svg xmlns="http://www.w3.org/2000/svg" xml:space="preserve" width="2048px" height="2048px" style="shape-rendering:geometricPrecision; text-rendering:geometricPrecision; image-rendering:optimizeQuality; fill-rule:evenodd; clip-rule:evenodd"
viewBox="0 0 2048 2048"
 xmlns:xlink="http://www.w3.org/1999/xlink">
 <defs>
  <style type="text/css">
   <![CDATA[
    .fil0 {fill:none}
    .fil1 {fill:#212121;fill-rule:nonzero}
   ]]>
  </style>
 </defs>
 <g id="Layer_x0020_1">
  <metadata id="CorelCorpID_0Corel-Layer"/>
  <g id="_394196200">
   <rect id="_394196824" class="fil0" width="2048" height="2048"/>
   <rect id="_394188616" class="fil0" x="255.999" y="255.999" width="1536" height="1536"/>
  </g>
  <path class="fil1" d="M461.803 223.999l1124.39 0c41.9611,0 80.0883,17.1449 107.707,44.7638 27.6189,27.6213 44.7638,65.7461 44.7638,107.708l0 1295.06c0,41.9622 -17.1449,80.0871 -44.7638,107.708 -27.6189,27.6189 -65.7461,44.7638 -107.707,44.7638l-1124.39 0c-41.9611,0 -80.0883,-17.1449 -107.707,-44.7638 -27.6189,-27.6213 -44.7638,-65.7461 -44.7638,-107.708l0 -1295.06c0,-41.9622 17.1449,-80.0871 44.7638,-107.708 27.6189,-27.6189 65.7461,-44.7638 107.707,-44.7638zm1124.39 64.0016l-1124.39 0c-24.2953,0 -46.4079,9.96379 -62.4567,26.0126 -16.0488,16.05 -26.0126,38.1626 -26.0126,62.4579l0 1295.06c0,24.2953 9.96379,46.4079 26.0126,62.4579 16.0488,16.0488 38.1614,26.0126 62.4567,26.0126l1124.39 0c24.2953,0 46.4079,-9.96379 62.4567,-26.0126 16.0488,-16.05 26.0126,-38.1626 26.0126,-62.4579l0 -1295.06c0,-24.2953 -9.96379,-46.4079 -26.0126,-62.4579 -16.0488,-16.0488 -38.1614,-26.0126 -62.4567,-26.0126z"/>
  <path class="fil1" d="M477.866 360.531l1092.27 0 32.0008 0 0 32.0008 0 341.334 0 32.0008 -32.0008 0 -1092.27 0 -32.0008 0 0 -32.0008 0 -341.334 0 -32.0008 32.0008 0zm1060.27 64.0016l-1028.27 0 0 277.332 1028.27 0 0 -277.332z"/>
  <path class="fil1" d="M477.866 838.398l184.505 0 32.0008 0 0 32.0008 0 170.667 0 32.0008 -32.0008 0 -184.505 0 -32.0008 0 0 -32.0008 0 -170.667 0 -32.0008 32.0008 0zm152.504 64.0016l-120.503 0 0 106.665 120.503 0 0 -106.665z"/>
  <path class="fil1" d="M780.454 838.398l184.505 0 32.0008 0 0 32.0008 0 170.667 0 32.0008 -32.0008 0 -184.505 0 -32.0008 0 0 -32.0008 0 -170.667 0 -32.0008 32.0008 0zm152.504 64.0016l-120.503 0 0 106.665 120.503 0 0 -106.665z"/>
  <path class="fil1" d="M1083.04 838.398l184.505 0 32.0008 0 0 32.0008 0 170.667 0 32.0008 -32.0008 0 -184.505 0 -32.0008 0 0 -32.0008 0 -170.667 0 -32.0008 32.0008 0zm152.504 64.0016l-120.503 0 0 106.665 120.503 0 0 -106.665z"/>
  <path class="fil1" d="M1385.63 838.398l184.505 0 32.0008 0 0 32.0008 0 170.667 0 32.0008 -32.0008 0 -184.505 0 -32.0008 0 0 -32.0008 0 -170.667 0 -32.0008 32.0008 0zm152.504 64.0016l-120.503 0 0 106.665 120.503 0 0 -106.665z"/>
  <path class="fil1" d="M477.866 1145.6l184.505 0 32.0008 0 0 32.0008 0 170.667 0 32.0008 -32.0008 0 -184.505 0 -32.0008 0 0 -32.0008 0 -170.667 0 -32.0008 32.0008 0zm152.504 64.0016l-120.503 0 0 106.665 120.503 0 0 -106.665z"/>
  <path class="fil1" d="M780.454 1145.6l184.505 0 32.0008 0 0 32.0008 0 170.667 0 32.0008 -32.0008 0 -184.505 0 -32.0008 0 0 -32.0008 0 -170.667 0 -32.0008 32.0008 0zm152.504 64.0016l-120.503 0 0 106.665 120.503 0 0 -106.665z"/>
  <path class="fil1" d="M1083.04 1145.6l184.505 0 32.0008 0 0 32.0008 0 170.667 0 32.0008 -32.0008 0 -184.505 0 -32.0008 0 0 -32.0008 0 -170.667 0 -32.0008 32.0008 0zm152.504 64.0016l-120.503 0 0 106.665 120.503 0 0 -106.665z"/>
  <path class="fil1" d="M477.866 1452.8l184.505 0 32.0008 0 0 32.0008 0 170.667 0 32.0008 -32.0008 0 -184.505 0 -32.0008 0 0 -32.0008 0 -170.667 0 -32.0008 32.0008 0zm152.504 64.0016l-120.503 0 0 106.665 120.503 0 0 -106.665z"/>
  <path class="fil1" d="M780.454 1452.8l184.505 0 32.0008 0 0 32.0008 0 170.667 0 32.0008 -32.0008 0 -184.505 0 -32.0008 0 0 -32.0008 0 -170.667 0 -32.0008 32.0008 0zm152.504 64.0016l-120.503 0 0 106.665 120.503 0 0 -106.665z"/>
  <path class="fil1" d="M1083.04 1452.8l184.505 0 32.0008 0 0 32.0008 0 170.667 0 32.0008 -32.0008 0 -184.505 0 -32.0008 0 0 -32.0008 0 -170.667 0 -32.0008 32.0008 0zm152.504 64.0016l-120.503 0 0 106.665 120.503 0 0 -106.665z"/>
  <path class="fil1" d="M1385.63 1145.6l184.505 0 32.0008 0 0 32.0008 0 477.867 0 32.0008 -32.0008 0 -184.505 0 -32.0008 0 0 -32.0008 0 -477.867 0 -32.0008 32.0008 0zm152.504 64.0016l-120.503 0 0 413.866 120.503 0 0 -413.866z"/>
 </g>
</svg>
